<?xml version="1.0" encoding="UTF-8" standalone="no"?>
<!-- Created with Inkscape (http://www.inkscape.org/) -->

<svg
   xmlns:dc="http://purl.org/dc/elements/1.1/"
   xmlns:cc="http://creativecommons.org/ns#"
   xmlns:rdf="http://www.w3.org/1999/02/22-rdf-syntax-ns#"
   xmlns:svg="http://www.w3.org/2000/svg"
   xmlns="http://www.w3.org/2000/svg"
   xmlns:sodipodi="http://sodipodi.sourceforge.net/DTD/sodipodi-0.dtd"
   xmlns:inkscape="http://www.inkscape.org/namespaces/inkscape"
   width="1024"
   height="1024"
   id="svg2"
   version="1.1"
   inkscape:version="0.92.3 (2405546, 2018-03-11)"
   sodipodi:docname="logo.svg">
  <defs
     id="defs4">
    <linearGradient
       id="linearGradient5241">
      <stop
         style="stop-color:#000000;stop-opacity:1;"
         offset="0"
         id="stop5243" />
      <stop
         style="stop-color:#727272;stop-opacity:1;"
         offset="1"
         id="stop5245" />
    </linearGradient>
  </defs>
  <sodipodi:namedview
     id="base"
     pagecolor="#ffffff"
     bordercolor="#666666"
     borderopacity="1.0"
     inkscape:pageopacity="0.0"
     inkscape:pageshadow="2"
     inkscape:zoom="0.35355339"
     inkscape:cx="-23.603309"
     inkscape:cy="585.09728"
     inkscape:document-units="px"
     inkscape:current-layer="layer1"
     showgrid="false"
     showborder="true"
     inkscape:snap-object-midpoints="true"
     inkscape:window-width="1366"
     inkscape:window-height="709"
     inkscape:window-x="0"
     inkscape:window-y="0"
     inkscape:window-maximized="1" />
  <metadata
     id="metadata7">
    <rdf:RDF>
      <cc:Work
         rdf:about="">
        <dc:format>image/svg+xml</dc:format>
        <dc:type
           rdf:resource="http://purl.org/dc/dcmitype/StillImage" />
        <dc:title />
      </cc:Work>
    </rdf:RDF>
  </metadata>
  <g
     inkscape:label="Layer 1"
     inkscape:groupmode="layer"
     id="layer1"
     transform="matrix(4.6461834,0,0,4.6461834,-3.5127934,-3800.4212)">
    <path
       style="fill:#7498bc;fill-opacity:1;stroke:none"
       d="m 63.643162,941.45922 20.53572,11.78571 1.339291,14.91072 -10.892865,-4.82143 z"
       id="path2998"
       inkscape:connector-curvature="0" />
    <path
       style="fill:#7498bc;fill-opacity:1;stroke:none"
       d="m 138.19674,952.61993 -1.33928,15.625 11.07143,-4.82143 10.89286,-22.14286 z"
       id="path3000"
       inkscape:connector-curvature="0" />
    <path
       style="fill:#7498bc;fill-opacity:1;stroke:none"
       d="m 16.685997,884.39241 25.632635,39.64849 -16.162438,35.1028 c 4.581712,1.30425 10.294005,3.49071 14.759327,5.42302 7.021964,3.03867 12.634106,6.19281 18.701989,9.98181 -10.005815,-2.78674 -21.67603,-5.69085 -28.410553,-4.54569 14.799557,6.86604 31.292455,14.91361 67.590672,51.58296 l 8.549601,-0.017 L 77.232049,894.03663 23.642883,820.60478 Z m 128.920753,8.94978 -30.80967,128.22621 9.07154,0.018 c 16.39754,-16.1455 30.50417,-33.1984 66.75308,-51.28306 -6.73453,-1.14516 -18.40474,1.75895 -28.41056,4.54569 6.06789,-3.789 11.68003,-6.94314 18.70199,-9.98181 4.46532,-1.93231 10.17762,-4.11877 14.75933,-5.42302 l -16.16244,-35.1028 25.63263,-39.64849 -6.27648,-63.5987 z m 63.19771,-7.89186 -25.12757,39.01714 17.42515,37.88072 c -5.12609,0.37048 -9.89313,1.44635 -14.39469,3.78807 7.03734,-0.32386 12.88532,-0.0521 19.25604,1.95717 -37.12132,12.74569 -67.67681,40.09067 -94.6387,70.26877 -33.606711,-39.077 -75.533591,-69.0589 -97.290336,-69.87464 6.370726,-2.00929 14.049611,-2.97551 21.086945,-2.65165 -4.501553,-2.34172 -9.268595,-3.41759 -14.394688,-3.78807 l 17.425149,-37.88072 -25.127566,-39.01714 9.730769,-67.18373 55.487236,54.73095 33.082491,-5.6821 33.2114,5.21401 55.13365,-53.59938 z"
       id="path3002"
       inkscape:connector-curvature="0" />
  </g>
</svg>
