<?xml version="1.0" encoding="UTF-8"?>
<!DOCTYPE svg PUBLIC "-//W3C//DTD SVG 1.1//EN" "http://www.w3.org/Graphics/SVG/1.1/DTD/svg11.dtd">
<!-- Creator: CorelDRAW X8 -->
<svg xmlns="http://www.w3.org/2000/svg" xml:space="preserve" width="500px" height="500px" version="1.1" style="shape-rendering:geometricPrecision; text-rendering:geometricPrecision; image-rendering:optimizeQuality; fill-rule:evenodd; clip-rule:evenodd" viewBox="0 0 10335 10335">
 <defs>
  <style type="text/css">
   <![CDATA[
    .fil0 {fill:#009999}
    .fil1 {fill:#FDFDFD}
   ]]>
  </style>
 </defs>
 <g id="Слой_x0020_1">
  <metadata id="CorelCorpID_0Corel-Layer"/>
  <g id="_2534227215808">
   <path class="fil0" d="M0 6547l0 3655c54,-28 107,-62 162,-92l485 -281c645,-365 1292,-751 1936,-1117 217,-124 430,-247 645,-373 534,-313 1083,-619 1615,-932l970 -560c215,-125 429,-250 646,-373 434,-246 857,-501 1291,-745 216,-122 430,-249 645,-373l1291 -745c37,-22 625,-365 649,-372l0 -3655c-53,27 -109,63 -164,94l-1130 653c-427,244 -865,505 -1291,745 -217,122 -428,249 -645,372 -647,368 -1291,749 -1937,1118l-649 375c-215,127 -429,247 -645,372 -430,251 -861,498 -1291,746 -2,1 -2544,1476 -2583,1488z"/>
   <path class="fil0" d="M0 5787l625 -361c210,-118 416,-244 626,-362 210,-117 414,-240 625,-361l1252 -722c208,-122 419,-239 626,-361 208,-124 418,-243 626,-362 212,-121 416,-243 629,-363 210,-119 414,-243 625,-361 211,-119 416,-244 626,-362 519,-291 1043,-605 1563,-902 108,-61 209,-119 314,-181 209,-124 418,-239 626,-362 209,-122 416,-242 626,-361 107,-61 209,-120 314,-182 54,-31 102,-59 157,-91l158 -93 -10018 0 0 5787z"/>
   <path class="fil1" d="M0 5787l0 760c39,-12 2581,-1487 2583,-1488 430,-248 861,-495 1291,-746 216,-125 430,-245 645,-372l649 -375c646,-369 1290,-750 1937,-1118 217,-123 428,-250 645,-372 426,-240 864,-501 1291,-745l1130 -653c55,-31 111,-67 164,-94l0 -584 -317 0 -158 93c-55,32 -103,60 -157,91 -105,62 -207,121 -314,182 -210,119 -417,239 -626,361 -208,123 -417,238 -626,362 -105,62 -206,120 -314,181 -520,297 -1044,611 -1563,902 -210,118 -415,243 -626,362 -211,118 -415,242 -625,361 -213,120 -417,242 -629,363 -208,119 -418,238 -626,362 -207,122 -418,239 -626,361l-1252 722c-211,121 -415,244 -625,361 -210,118 -416,244 -626,362l-625 361z"/>
   <path class="fil1" d="M0 10202l0 133 1096 0 9239 -5335 0 -761c-24,7 -612,350 -649,372l-1291 745c-215,124 -429,251 -645,373 -434,244 -857,499 -1291,745 -217,123 -431,248 -646,373l-970 560c-532,313 -1081,619 -1615,932 -215,126 -428,249 -645,373 -644,366 -1291,752 -1936,1117l-485 281c-55,30 -108,64 -162,92z"/>
   <path class="fil0" d="M1096 10335l1167 0c15,-20 439,-257 502,-294 167,-100 337,-192 504,-292 326,-193 678,-391 1009,-582 336,-194 669,-389 1009,-583 339,-192 671,-392 1009,-582 340,-191 671,-392 1010,-583 339,-191 671,-391 1009,-582 168,-95 337,-193 504,-292 167,-99 335,-191 504,-291 167,-99 337,-195 505,-291l380 -220c26,-15 104,-64 127,-70l0 -673 -9239 5335z"/>
   <path class="fil1" d="M2263 10335l1318 0 6754 -3901 0 -761c-23,6 -101,55 -127,70l-380 220c-168,96 -338,192 -505,291 -169,100 -337,192 -504,291 -167,99 -336,197 -504,292 -338,191 -670,391 -1009,582 -339,191 -670,392 -1010,583 -338,190 -670,390 -1009,582 -340,194 -673,389 -1009,583 -331,191 -683,389 -1009,582 -167,100 -337,192 -504,292 -63,37 -487,274 -502,294z"/>
   <path class="fil1" d="M3901 4891c-246,22 -445,117 -627,254 -317,239 -466,631 -387,1037 32,166 90,294 157,427 49,95 138,223 211,301 12,12 26,23 39,38 74,81 248,200 347,243 326,141 640,106 949,-53 187,-97 351,-255 453,-431 295,-512 61,-1127 -298,-1489 -175,-176 -465,-361 -844,-327z"/>
   <path class="fil0" d="M3581 10335l1123 0c16,-18 2010,-1164 2106,-1220 234,-136 468,-272 705,-406 472,-269 936,-546 1409,-814 237,-134 470,-271 704,-406 118,-69 234,-135 351,-203 43,-25 334,-198 356,-202l0 -650 -6754 3901z"/>
   <path class="fil1" d="M4704 10335l1320 0 4311 -2491 0 -760c-22,4 -313,177 -356,202 -117,68 -233,134 -351,203 -234,135 -467,272 -704,406 -473,268 -937,545 -1409,814 -237,134 -471,270 -705,406 -96,56 -2090,1202 -2106,1220z"/>
   <path class="fil1" d="M1779 6042c25,166 66,346 99,514l199 1030c17,86 33,169 50,256 13,62 50,201 52,254l-213 -192c-59,-56 -153,-131 -219,-194 -73,-70 -189,-164 -272,-240l-510 -451c-17,-12 -34,-30 -50,-43 -19,-17 -34,-29 -49,-44 -20,-17 -34,-28 -50,-43 -50,-49 -155,-134 -195,-176 -23,6 -258,145 -297,168 -30,18 -75,47 -104,57 10,33 265,467 287,503 193,326 385,676 578,1003l216 373c18,30 63,102 72,131 21,-5 243,-133 259,-147l-981 -1703c29,18 263,227 292,253l491 429c8,8 12,13 21,21l369 323c34,32 64,54 96,85l196 171c26,22 75,73 101,85l233 -134 -377 -2013 119 202c42,71 81,138 122,210 79,141 162,279 242,419 81,142 159,279 242,419 82,139 158,283 242,420l252 -143c-8,-38 -989,-1711 -1136,-1975l-22 -32 -355 204z"/>
   <path class="fil0" d="M3890 5170c-264,21 -467,176 -572,313 -250,330 -168,654 20,1003 26,50 54,93 85,137 33,47 64,81 101,121 337,370 901,335 1203,-54 139,-179 191,-435 114,-700 -32,-113 -83,-217 -136,-308 -47,-79 -126,-194 -192,-253 -46,-41 -47,-51 -117,-105 -140,-107 -314,-170 -506,-154z"/>
   <path class="fil0" d="M6024 10335l1072 0c18,-19 770,-449 809,-471 137,-77 274,-155 407,-234 134,-81 268,-154 403,-233 269,-159 540,-308 809,-468 133,-79 270,-157 406,-234 33,-19 379,-224 405,-231l0 -620 -4311 2491z"/>
   <path class="fil1" d="M7096 10335l1320 0 1919 -1110 0 -761c-26,7 -372,212 -405,231 -136,77 -273,155 -406,234 -269,160 -540,309 -809,468 -135,79 -269,152 -403,233 -133,79 -270,157 -407,234 -39,22 -791,452 -809,471z"/>
   <path class="fil1" d="M5948 3638l132 231 663 -380 1024 1770 266 -151 -1022 -1775c82,-41 652,-376 657,-382l-132 -231c-27,10 -161,91 -198,112 -66,37 -133,76 -200,115l-1140 658c-16,9 -38,20 -50,33z"/>
   <polygon class="fil0" points="8416,10335 10335,10335 10335,9225 "/>
   <path class="fil1" d="M4737 4334l1155 2006c28,-7 121,-67 155,-86 258,-146 523,-305 780,-450 55,-31 283,-168 316,-181 -7,-28 -48,-90 -64,-119 -21,-36 -53,-83 -65,-117 -31,7 -758,434 -867,496 -31,18 -96,60 -127,70 -27,-56 -215,-372 -255,-442 -83,-149 -168,-295 -255,-443 -19,-31 -490,-859 -513,-883l-260 149z"/>
   <path class="fil1" d="M7997 3182c7,28 180,319 209,369l631 1089 243 -137 -208 -363c-188,-332 -389,-667 -577,-999 -16,-30 -41,-65 -52,-94 -42,10 -195,118 -246,135z"/>
   <path class="fil1" d="M9218 3674l52 93 73 -38c-21,80 -37,115 1,197 26,56 68,99 119,125 133,67 258,32 372,-35 269,-158 228,-427 73,-519 -29,-18 -66,-22 -89,-35l293 -169 -56 -101c-33,7 -638,365 -734,420 -30,17 -81,41 -104,62z"/>
   <path class="fil1" d="M9155 3367c-28,13 -52,36 -83,47 7,25 39,79 54,94 64,-34 563,-331 602,-344 -4,-19 -29,-61 -41,-81 -8,-13 -11,-17 -18,-24 -97,40 -363,237 -471,238 -125,2 -234,-165 -139,-259 44,-43 229,-142 294,-181 41,-24 110,-68 151,-85l-57 -104c-31,11 -88,48 -119,66 -78,45 -307,170 -349,209 -73,66 -99,154 -46,268 21,42 52,80 82,104 40,31 80,40 140,52z"/>
   <path class="fil1" d="M8846 2553c-5,-36 -29,-74 -41,-107 -59,13 -101,36 -166,5 -104,-51 -180,-225 42,-364 84,-52 207,-105 301,-31 28,23 70,72 73,130 5,84 -46,104 -63,145l51 62c3,3 7,9 9,11 10,10 1,4 12,10 47,-29 101,-116 97,-207 -3,-85 -55,-168 -93,-211 -122,-136 -305,-103 -444,-18 -114,70 -246,202 -168,402 29,73 81,135 140,165 68,35 176,48 250,8z"/>
   <path class="fil0" d="M9703 3542c-108,19 -246,114 -277,194 -55,141 59,257 206,233 111,-19 244,-112 277,-194 57,-143 -62,-258 -206,-233z"/>
   <path class="fil1" d="M8692 2755c3,18 43,87 57,102 33,-11 815,-468 836,-480l-57 -102 -836 480z"/>
   <path class="fil1" d="M7680 2634c7,27 60,110 77,140 27,48 55,100 82,140l243 -139 -159 -278 -243 137z"/>
  </g>
 </g>
</svg>